<mxfile host="app.diagrams.net" modified="2023-04-02T17:31:00.938Z" agent="Mozilla/5.0 (Windows NT 10.0; Win64; x64) AppleWebKit/537.36 (KHTML, like Gecko) Chrome/111.0.0.0 Safari/537.36" version="21.1.2" etag="SfzDsXpA66h3EPpZJHaw" type="github">
  <diagram id="yPxyJZ8AM_hMuL3Unpa9" name="complex gitflow">
    <mxGraphModel dx="3585" dy="1890" grid="1" gridSize="10" guides="1" tooltips="1" connect="1" arrows="1" fold="1" page="1" pageScale="1" pageWidth="1100" pageHeight="850" math="0" shadow="0">
      <root>
        <mxCell id="0" />
        <mxCell id="1" parent="0" />
        <mxCell id="nIs_TiCdEZjcmo3SVBWc-33" value="" style="group" parent="1" vertex="1" connectable="0">
          <mxGeometry x="460" y="410" width="1440" height="430" as="geometry" />
        </mxCell>
        <mxCell id="nIs_TiCdEZjcmo3SVBWc-13" value="" style="group" parent="nIs_TiCdEZjcmo3SVBWc-33" vertex="1" connectable="0">
          <mxGeometry x="-160" y="-330" width="200" height="220" as="geometry" />
        </mxCell>
        <mxCell id="nIs_TiCdEZjcmo3SVBWc-5" value="Inline extends Base" style="swimlane;whiteSpace=wrap;html=1;" parent="nIs_TiCdEZjcmo3SVBWc-13" vertex="1">
          <mxGeometry width="200" height="220" as="geometry" />
        </mxCell>
        <mxCell id="nIs_TiCdEZjcmo3SVBWc-8" value="props:&lt;br&gt;&lt;br&gt;Tag: str&lt;br&gt;?InlineCSS{}, &lt;br&gt;?InlineAttributes{} [href, blank]" style="whiteSpace=wrap;html=1;" parent="nIs_TiCdEZjcmo3SVBWc-5" vertex="1">
          <mxGeometry y="110" width="200" height="110" as="geometry" />
        </mxCell>
        <mxCell id="nIs_TiCdEZjcmo3SVBWc-11" value="Static props:&lt;br&gt;&lt;br&gt;component: InlineComponent" style="whiteSpace=wrap;html=1;" parent="nIs_TiCdEZjcmo3SVBWc-13" vertex="1">
          <mxGeometry y="20" width="200" height="90" as="geometry" />
        </mxCell>
        <mxCell id="nIs_TiCdEZjcmo3SVBWc-18" value="" style="group" parent="nIs_TiCdEZjcmo3SVBWc-33" vertex="1" connectable="0">
          <mxGeometry x="-160" y="-55" width="200" height="170" as="geometry" />
        </mxCell>
        <mxCell id="nIs_TiCdEZjcmo3SVBWc-19" value="FaIcons" style="swimlane;whiteSpace=wrap;html=1;" parent="nIs_TiCdEZjcmo3SVBWc-18" vertex="1">
          <mxGeometry width="200" height="170.00000000000003" as="geometry" />
        </mxCell>
        <mxCell id="nIs_TiCdEZjcmo3SVBWc-20" value="props:&lt;br&gt;&lt;br&gt;iconName: str&lt;br&gt;&lt;br&gt;style{}" style="whiteSpace=wrap;html=1;" parent="nIs_TiCdEZjcmo3SVBWc-19" vertex="1">
          <mxGeometry y="17" width="200" height="153" as="geometry" />
        </mxCell>
        <mxCell id="nIs_TiCdEZjcmo3SVBWc-15" value="Block extebds Base" style="swimlane;whiteSpace=wrap;html=1;" parent="nIs_TiCdEZjcmo3SVBWc-33" vertex="1">
          <mxGeometry x="-160" y="190" width="200" height="230" as="geometry" />
        </mxCell>
        <mxCell id="nIs_TiCdEZjcmo3SVBWc-14" value="" style="group" parent="nIs_TiCdEZjcmo3SVBWc-15" vertex="1" connectable="0">
          <mxGeometry width="200" height="230" as="geometry" />
        </mxCell>
        <mxCell id="nIs_TiCdEZjcmo3SVBWc-17" value="Static props:&lt;br&gt;&lt;br&gt;component: BlockComponent" style="whiteSpace=wrap;html=1;" parent="nIs_TiCdEZjcmo3SVBWc-14" vertex="1">
          <mxGeometry y="23" width="200" height="103.50000000000001" as="geometry" />
        </mxCell>
        <mxCell id="nIs_TiCdEZjcmo3SVBWc-16" value="props:&lt;br&gt;&lt;br&gt;BlockCSS{}, &lt;br&gt;BlockAttributes{} [for, data]" style="whiteSpace=wrap;html=1;" parent="nIs_TiCdEZjcmo3SVBWc-14" vertex="1">
          <mxGeometry y="126.50000000000001" width="200" height="103.50000000000001" as="geometry" />
        </mxCell>
        <mxCell id="nIs_TiCdEZjcmo3SVBWc-53" value="" style="group" parent="nIs_TiCdEZjcmo3SVBWc-33" vertex="1" connectable="0">
          <mxGeometry x="190" y="120" width="200" height="300" as="geometry" />
        </mxCell>
        <mxCell id="nIs_TiCdEZjcmo3SVBWc-54" value="BlockCSS extends CommonCSS" style="swimlane;whiteSpace=wrap;html=1;" parent="nIs_TiCdEZjcmo3SVBWc-53" vertex="1">
          <mxGeometry width="200" height="300" as="geometry" />
        </mxCell>
        <mxCell id="nIs_TiCdEZjcmo3SVBWc-55" value="props:&lt;br&gt;&lt;br&gt;width&lt;br style=&quot;border-color: var(--border-color);&quot;&gt;height&lt;br&gt;&lt;br&gt;justify-content&lt;br&gt;flex-direction" style="whiteSpace=wrap;html=1;" parent="nIs_TiCdEZjcmo3SVBWc-54" vertex="1">
          <mxGeometry y="17.65" width="200" height="282.35" as="geometry" />
        </mxCell>
        <mxCell id="15" value="" style="group" parent="1" vertex="1" connectable="0">
          <mxGeometry x="60" y="330" width="200" height="220" as="geometry" />
        </mxCell>
        <mxCell id="16" value="Base" style="swimlane;whiteSpace=wrap;html=1;" parent="15" vertex="1">
          <mxGeometry width="200" height="220" as="geometry" />
        </mxCell>
        <mxCell id="17" value="props:&lt;br&gt;&lt;br&gt;?text: str&lt;br&gt;?Themes{}&lt;br&gt;cssAttributes{} [hover..] &lt;br&gt;?Children{}" style="whiteSpace=wrap;html=1;" parent="16" vertex="1">
          <mxGeometry y="20" width="200" height="200" as="geometry" />
        </mxCell>
        <mxCell id="Znao5s1oSx_la0LDRGZg-18" style="edgeStyle=orthogonalEdgeStyle;rounded=0;orthogonalLoop=1;jettySize=auto;html=1;exitX=0;exitY=0.5;exitDx=0;exitDy=0;entryX=0.5;entryY=0;entryDx=0;entryDy=0;" edge="1" parent="1" source="nIs_TiCdEZjcmo3SVBWc-11" target="16">
          <mxGeometry relative="1" as="geometry" />
        </mxCell>
        <mxCell id="Znao5s1oSx_la0LDRGZg-19" style="edgeStyle=orthogonalEdgeStyle;rounded=0;orthogonalLoop=1;jettySize=auto;html=1;exitX=0;exitY=1;exitDx=0;exitDy=0;entryX=0.5;entryY=1;entryDx=0;entryDy=0;" edge="1" parent="1" source="nIs_TiCdEZjcmo3SVBWc-17" target="16">
          <mxGeometry relative="1" as="geometry" />
        </mxCell>
        <mxCell id="nIs_TiCdEZjcmo3SVBWc-37" value="" style="group" parent="1" vertex="1" connectable="0">
          <mxGeometry x="1615" y="460" width="660" height="300" as="geometry" />
        </mxCell>
        <mxCell id="nIs_TiCdEZjcmo3SVBWc-39" value="" style="group" parent="nIs_TiCdEZjcmo3SVBWc-37" vertex="1" connectable="0">
          <mxGeometry y="80" width="660" height="220" as="geometry" />
        </mxCell>
        <mxCell id="nIs_TiCdEZjcmo3SVBWc-42" value="SizeCSS extends CSS" style="swimlane;whiteSpace=wrap;html=1;" parent="nIs_TiCdEZjcmo3SVBWc-39" vertex="1">
          <mxGeometry x="-1540" y="430" width="200" height="90" as="geometry" />
        </mxCell>
        <mxCell id="nIs_TiCdEZjcmo3SVBWc-43" value="min-width&lt;br&gt;max-width" style="whiteSpace=wrap;html=1;" parent="nIs_TiCdEZjcmo3SVBWc-42" vertex="1">
          <mxGeometry y="20" width="200" height="70" as="geometry" />
        </mxCell>
        <mxCell id="nIs_TiCdEZjcmo3SVBWc-49" value="SmCSS extends CSS extends Size" style="swimlane;whiteSpace=wrap;html=1;" parent="nIs_TiCdEZjcmo3SVBWc-39" vertex="1">
          <mxGeometry x="-1315" y="370" width="200" height="60" as="geometry" />
        </mxCell>
        <mxCell id="nIs_TiCdEZjcmo3SVBWc-50" value="prefix" style="whiteSpace=wrap;html=1;" parent="nIs_TiCdEZjcmo3SVBWc-49" vertex="1">
          <mxGeometry y="20" width="200" height="40" as="geometry" />
        </mxCell>
        <mxCell id="Znao5s1oSx_la0LDRGZg-26" style="edgeStyle=orthogonalEdgeStyle;rounded=0;orthogonalLoop=1;jettySize=auto;html=1;exitX=0;exitY=0.5;exitDx=0;exitDy=0;" edge="1" parent="nIs_TiCdEZjcmo3SVBWc-39" source="5">
          <mxGeometry relative="1" as="geometry">
            <mxPoint x="-1335" y="480" as="targetPoint" />
          </mxGeometry>
        </mxCell>
        <mxCell id="5" value="LgCSS extends CSS" style="swimlane;whiteSpace=wrap;html=1;" parent="nIs_TiCdEZjcmo3SVBWc-39" vertex="1">
          <mxGeometry x="-1315" y="450" width="200" height="60" as="geometry" />
        </mxCell>
        <mxCell id="6" value="prefix" style="whiteSpace=wrap;html=1;" parent="5" vertex="1">
          <mxGeometry y="20" width="200" height="40" as="geometry" />
        </mxCell>
        <mxCell id="2" value="MdCSS extends CSS" style="swimlane;whiteSpace=wrap;html=1;" parent="nIs_TiCdEZjcmo3SVBWc-39" vertex="1">
          <mxGeometry x="-1315" y="530" width="200" height="60" as="geometry" />
        </mxCell>
        <mxCell id="3" value="prefix" style="whiteSpace=wrap;html=1;" parent="2" vertex="1">
          <mxGeometry y="20" width="200" height="40" as="geometry" />
        </mxCell>
        <mxCell id="Znao5s1oSx_la0LDRGZg-23" style="edgeStyle=orthogonalEdgeStyle;rounded=0;orthogonalLoop=1;jettySize=auto;html=1;exitX=0;exitY=0.5;exitDx=0;exitDy=0;entryX=0.5;entryY=0;entryDx=0;entryDy=0;" edge="1" parent="nIs_TiCdEZjcmo3SVBWc-39" source="nIs_TiCdEZjcmo3SVBWc-50" target="nIs_TiCdEZjcmo3SVBWc-42">
          <mxGeometry relative="1" as="geometry" />
        </mxCell>
        <mxCell id="Znao5s1oSx_la0LDRGZg-24" style="edgeStyle=orthogonalEdgeStyle;rounded=0;orthogonalLoop=1;jettySize=auto;html=1;exitX=0;exitY=0.5;exitDx=0;exitDy=0;entryX=0.5;entryY=1;entryDx=0;entryDy=0;" edge="1" parent="nIs_TiCdEZjcmo3SVBWc-39" source="3" target="nIs_TiCdEZjcmo3SVBWc-42">
          <mxGeometry relative="1" as="geometry" />
        </mxCell>
        <mxCell id="nIs_TiCdEZjcmo3SVBWc-56" value="Block:div" style="rounded=1;whiteSpace=wrap;html=1;" parent="1" vertex="1">
          <mxGeometry x="1630" y="150" width="120" height="40" as="geometry" />
        </mxCell>
        <mxCell id="nIs_TiCdEZjcmo3SVBWc-58" value="Block: div" style="rounded=1;whiteSpace=wrap;html=1;" parent="1" vertex="1">
          <mxGeometry x="1470" y="230" width="120" height="40" as="geometry" />
        </mxCell>
        <mxCell id="nIs_TiCdEZjcmo3SVBWc-60" style="edgeStyle=orthogonalEdgeStyle;rounded=0;orthogonalLoop=1;jettySize=auto;html=1;" parent="1" source="nIs_TiCdEZjcmo3SVBWc-56" target="nIs_TiCdEZjcmo3SVBWc-58" edge="1">
          <mxGeometry relative="1" as="geometry">
            <Array as="points">
              <mxPoint x="1690" y="210" />
              <mxPoint x="1530" y="210" />
            </Array>
          </mxGeometry>
        </mxCell>
        <mxCell id="nIs_TiCdEZjcmo3SVBWc-59" value="Inline: props.tag (a)" style="rounded=1;whiteSpace=wrap;html=1;" parent="1" vertex="1">
          <mxGeometry x="1800" y="230" width="120" height="40" as="geometry" />
        </mxCell>
        <mxCell id="nIs_TiCdEZjcmo3SVBWc-61" style="edgeStyle=orthogonalEdgeStyle;rounded=0;orthogonalLoop=1;jettySize=auto;html=1;exitX=0.5;exitY=1;exitDx=0;exitDy=0;entryX=0.5;entryY=0;entryDx=0;entryDy=0;" parent="1" source="nIs_TiCdEZjcmo3SVBWc-56" target="nIs_TiCdEZjcmo3SVBWc-59" edge="1">
          <mxGeometry relative="1" as="geometry" />
        </mxCell>
        <mxCell id="nIs_TiCdEZjcmo3SVBWc-62" value="Inline: p" style="rounded=1;whiteSpace=wrap;html=1;" parent="1" vertex="1">
          <mxGeometry x="1390" y="310" width="120" height="40" as="geometry" />
        </mxCell>
        <mxCell id="nIs_TiCdEZjcmo3SVBWc-68" style="edgeStyle=orthogonalEdgeStyle;rounded=0;orthogonalLoop=1;jettySize=auto;html=1;exitX=0.5;exitY=1;exitDx=0;exitDy=0;entryX=0.5;entryY=0;entryDx=0;entryDy=0;" parent="1" source="nIs_TiCdEZjcmo3SVBWc-58" target="nIs_TiCdEZjcmo3SVBWc-62" edge="1">
          <mxGeometry relative="1" as="geometry" />
        </mxCell>
        <mxCell id="nIs_TiCdEZjcmo3SVBWc-63" value="Inline: p" style="rounded=1;whiteSpace=wrap;html=1;" parent="1" vertex="1">
          <mxGeometry x="1540" y="310" width="120" height="40" as="geometry" />
        </mxCell>
        <mxCell id="nIs_TiCdEZjcmo3SVBWc-69" style="edgeStyle=orthogonalEdgeStyle;rounded=0;orthogonalLoop=1;jettySize=auto;html=1;exitX=0.5;exitY=1;exitDx=0;exitDy=0;entryX=0.5;entryY=0;entryDx=0;entryDy=0;" parent="1" source="nIs_TiCdEZjcmo3SVBWc-58" target="nIs_TiCdEZjcmo3SVBWc-63" edge="1">
          <mxGeometry relative="1" as="geometry" />
        </mxCell>
        <mxCell id="nIs_TiCdEZjcmo3SVBWc-64" value="Inline: props.tag(span)" style="rounded=1;whiteSpace=wrap;html=1;" parent="1" vertex="1">
          <mxGeometry x="1730" y="310" width="120" height="40" as="geometry" />
        </mxCell>
        <mxCell id="nIs_TiCdEZjcmo3SVBWc-66" style="edgeStyle=orthogonalEdgeStyle;rounded=0;orthogonalLoop=1;jettySize=auto;html=1;exitX=0.5;exitY=1;exitDx=0;exitDy=0;entryX=0.5;entryY=0;entryDx=0;entryDy=0;" parent="1" source="nIs_TiCdEZjcmo3SVBWc-59" target="nIs_TiCdEZjcmo3SVBWc-64" edge="1">
          <mxGeometry relative="1" as="geometry" />
        </mxCell>
        <mxCell id="nIs_TiCdEZjcmo3SVBWc-73" style="edgeStyle=orthogonalEdgeStyle;rounded=0;orthogonalLoop=1;jettySize=auto;html=1;exitX=0.5;exitY=1;exitDx=0;exitDy=0;" parent="1" source="nIs_TiCdEZjcmo3SVBWc-65" edge="1">
          <mxGeometry relative="1" as="geometry">
            <mxPoint x="2010" y="390" as="targetPoint" />
          </mxGeometry>
        </mxCell>
        <mxCell id="nIs_TiCdEZjcmo3SVBWc-74" style="edgeStyle=orthogonalEdgeStyle;rounded=0;orthogonalLoop=1;jettySize=auto;html=1;exitX=0.5;exitY=1;exitDx=0;exitDy=0;" parent="1" source="nIs_TiCdEZjcmo3SVBWc-65" edge="1">
          <mxGeometry relative="1" as="geometry">
            <mxPoint x="1890" y="390" as="targetPoint" />
          </mxGeometry>
        </mxCell>
        <mxCell id="nIs_TiCdEZjcmo3SVBWc-65" value="Block: div" style="rounded=1;whiteSpace=wrap;html=1;" parent="1" vertex="1">
          <mxGeometry x="1880" y="310" width="120" height="40" as="geometry" />
        </mxCell>
        <mxCell id="nIs_TiCdEZjcmo3SVBWc-67" style="edgeStyle=orthogonalEdgeStyle;rounded=0;orthogonalLoop=1;jettySize=auto;html=1;exitX=0.5;exitY=1;exitDx=0;exitDy=0;entryX=0.5;entryY=0;entryDx=0;entryDy=0;" parent="1" source="nIs_TiCdEZjcmo3SVBWc-59" target="nIs_TiCdEZjcmo3SVBWc-65" edge="1">
          <mxGeometry relative="1" as="geometry" />
        </mxCell>
        <mxCell id="nIs_TiCdEZjcmo3SVBWc-70" value="FaIcon" style="rounded=1;whiteSpace=wrap;html=1;" parent="1" vertex="1">
          <mxGeometry x="1730" y="380" width="120" height="40" as="geometry" />
        </mxCell>
        <mxCell id="nIs_TiCdEZjcmo3SVBWc-71" style="edgeStyle=orthogonalEdgeStyle;rounded=0;orthogonalLoop=1;jettySize=auto;html=1;exitX=0.5;exitY=1;exitDx=0;exitDy=0;entryX=0.5;entryY=0;entryDx=0;entryDy=0;" parent="1" source="nIs_TiCdEZjcmo3SVBWc-64" target="nIs_TiCdEZjcmo3SVBWc-70" edge="1">
          <mxGeometry relative="1" as="geometry" />
        </mxCell>
        <mxCell id="nIs_TiCdEZjcmo3SVBWc-24" value="InlineCSS extends CommonCSS" style="swimlane;whiteSpace=wrap;html=1;" parent="1" vertex="1">
          <mxGeometry x="650" y="80" width="200" height="300" as="geometry" />
        </mxCell>
        <mxCell id="nIs_TiCdEZjcmo3SVBWc-25" value="props:&lt;br&gt;&lt;br&gt;// basic inline&lt;br&gt;&lt;br&gt;text-align&lt;br&gt;&lt;br&gt;// other inline&lt;br&gt;font-style&lt;br&gt;font-family&lt;br&gt;font-weight&lt;br&gt;text-decoration&lt;br style=&quot;border-color: var(--border-color);&quot;&gt;text-transform&lt;br style=&quot;border-color: var(--border-color);&quot;&gt;letter-spacing&lt;br style=&quot;border-color: var(--border-color);&quot;&gt;word-spacing&lt;br style=&quot;border-color: var(--border-color);&quot;&gt;line-height" style="whiteSpace=wrap;html=1;" parent="nIs_TiCdEZjcmo3SVBWc-24" vertex="1">
          <mxGeometry y="17.65" width="200" height="282.35" as="geometry" />
        </mxCell>
        <mxCell id="nIs_TiCdEZjcmo3SVBWc-51" value="CommonCSS" style="swimlane;whiteSpace=wrap;html=1;" parent="1" vertex="1">
          <mxGeometry x="920" y="320" width="200" height="300" as="geometry" />
        </mxCell>
        <mxCell id="nIs_TiCdEZjcmo3SVBWc-52" value="props:&lt;br&gt;&lt;br&gt;align-items&lt;br&gt;display&lt;br&gt;margin&lt;br&gt;padding&lt;br&gt;&lt;br&gt;color&lt;br style=&quot;border-color: var(--border-color);&quot;&gt;font-size&lt;br&gt;background-color&lt;br&gt;border&lt;br&gt;&lt;br&gt;hover: HoverCSS&lt;br&gt;focus: FocusCSS&lt;br&gt;dark: DarkCSS&lt;br&gt;&lt;br&gt;&lt;b&gt;// other&lt;br&gt;outline&lt;/b&gt;" style="whiteSpace=wrap;html=1;" parent="nIs_TiCdEZjcmo3SVBWc-51" vertex="1">
          <mxGeometry y="20" width="200" height="280" as="geometry" />
        </mxCell>
        <mxCell id="Znao5s1oSx_la0LDRGZg-20" style="edgeStyle=orthogonalEdgeStyle;rounded=0;orthogonalLoop=1;jettySize=auto;html=1;exitX=1;exitY=0.5;exitDx=0;exitDy=0;entryX=0.5;entryY=0;entryDx=0;entryDy=0;" edge="1" parent="1" source="nIs_TiCdEZjcmo3SVBWc-25" target="nIs_TiCdEZjcmo3SVBWc-51">
          <mxGeometry relative="1" as="geometry" />
        </mxCell>
        <mxCell id="Znao5s1oSx_la0LDRGZg-21" style="edgeStyle=orthogonalEdgeStyle;rounded=0;orthogonalLoop=1;jettySize=auto;html=1;exitX=1;exitY=0.5;exitDx=0;exitDy=0;entryX=0.56;entryY=1;entryDx=0;entryDy=0;entryPerimeter=0;" edge="1" parent="1" source="nIs_TiCdEZjcmo3SVBWc-55" target="nIs_TiCdEZjcmo3SVBWc-52">
          <mxGeometry relative="1" as="geometry" />
        </mxCell>
        <mxCell id="nIs_TiCdEZjcmo3SVBWc-28" value="HoverCSS extends CSS" style="swimlane;whiteSpace=wrap;html=1;" parent="1" vertex="1">
          <mxGeometry x="670" y="1000" width="200" height="50" as="geometry" />
        </mxCell>
        <mxCell id="9" value="prefixt" style="text;html=1;align=center;verticalAlign=middle;resizable=0;points=[];autosize=1;strokeColor=none;fillColor=none;" parent="1" vertex="1">
          <mxGeometry x="735" y="1020" width="60" height="30" as="geometry" />
        </mxCell>
        <mxCell id="10" value="prefixt" style="text;html=1;align=center;verticalAlign=middle;resizable=0;points=[];autosize=1;strokeColor=none;fillColor=none;" parent="1" vertex="1">
          <mxGeometry x="735" y="1100" width="60" height="30" as="geometry" />
        </mxCell>
        <mxCell id="nIs_TiCdEZjcmo3SVBWc-34" value="FocusCSS extends CSS" style="swimlane;whiteSpace=wrap;html=1;" parent="1" vertex="1">
          <mxGeometry x="670" y="1080" width="200" height="50" as="geometry" />
        </mxCell>
        <mxCell id="nIs_TiCdEZjcmo3SVBWc-38" value="DarkCSS extends CSS" style="swimlane;whiteSpace=wrap;html=1;" parent="1" vertex="1">
          <mxGeometry x="895" y="1000" width="200" height="50" as="geometry" />
        </mxCell>
        <mxCell id="11" value="prefixt" style="text;html=1;align=center;verticalAlign=middle;resizable=0;points=[];autosize=1;strokeColor=none;fillColor=none;" parent="nIs_TiCdEZjcmo3SVBWc-38" vertex="1">
          <mxGeometry x="70" y="20" width="60" height="30" as="geometry" />
        </mxCell>
        <mxCell id="nIs_TiCdEZjcmo3SVBWc-40" value="CustomThemeCSS extends CSS" style="swimlane;whiteSpace=wrap;html=1;fillColor=#999999;" parent="1" vertex="1">
          <mxGeometry x="895" y="1080" width="200" height="50" as="geometry" />
        </mxCell>
        <mxCell id="12" value="prefixt" style="text;html=1;align=center;verticalAlign=middle;resizable=0;points=[];autosize=1;strokeColor=none;fillColor=none;" parent="nIs_TiCdEZjcmo3SVBWc-40" vertex="1">
          <mxGeometry x="70" y="20" width="60" height="30" as="geometry" />
        </mxCell>
      </root>
    </mxGraphModel>
  </diagram>
</mxfile>
